<?xml version="1.0" encoding="UTF-8"?>
<svg xmlns="http://www.w3.org/2000/svg" viewBox="0 0 365 404" width="365" height="404">
<path d="M311.99 13.35C312.33 13.59 312.67 13.82 313.01 14.06C312.59 14.32 312.17 14.57 311.75 14.83C322.9 16.65 334.68 21.11 344.65 26.48C346.25 27.35 348.68 29.04 349.9 30.35C351.46 32.04 351.26 34.83 353.5 35.75C352.24 39.15 352.95 43.64 352.95 47.25C352.94 54.08 352.77 60.92 352.87 67.75C352.94 72.08 353.8 77.43 352.82 81.66C352.26 84.1 350.67 87.34 348.67 88.94C347.08 90.21 343.55 91.27 343.05 93.06C341.79 93.43 340.62 92.78 339.25 92.95C338.12 93.09 337.29 93.93 336.23 94.1C334.17 94.43 328.39 91.88 326.16 91.16C325.26 90.88 324.21 91.13 323.35 90.83C313.44 87.44 303.49 82.93 293.14 80.21C289.1 79.15 284.88 77.63 280.75 77.05C279.06 76.81 276.68 77.77 275.75 76.5C275.33 76.83 274.92 77.15 274.5 77.48C274.19 77.29 273.88 77.09 273.57 76.9C273.96 76.64 274.36 76.39 274.75 76.13C267.11 75.54 259.44 73.81 251.72 73.23C239.4 72.29 227.1 73.49 215.02 75.25C215.65 75.47 216.29 75.69 216.92 75.91C216.44 76.17 215.96 76.42 215.47 76.67C213.18 76.53 210.89 76.39 208.6 76.25C209.08 76.48 209.55 76.71 210.03 76.94C209.72 77.15 209.4 77.37 209.09 77.58C204.67 75.27 194.26 80.01 189.62 81.8C170.75 89.07 152.62 98.84 138.71 113.91C123.03 130.88 114.68 142.74 107.18 164.87C103.77 174.94 103.33 185.7 102.64 196.25C100.4 230.16 114.35 263.49 138.47 286.75C138.95 286.67 139.43 286.59 139.9 286.51C141.94 287.6 143.39 289.78 145.75 289.91C147.98 277.87 153.39 267.03 158.13 255.85C159.44 252.75 164.43 246.31 164.85 243.72C165.33 240.81 162.36 231.42 161.99 227.75C160.43 212.55 161.64 196.33 167.73 182.53C169.35 178.87 170.87 173.02 173.95 170.36C174.23 170.66 174.51 170.95 174.79 171.25C177.23 166.71 180.84 162.36 184.25 158.47C185.68 156.83 188.37 155.14 189 153.25C188.44 153.31 187.88 153.38 187.32 153.44C188.86 152.06 190.39 150.68 191.93 149.31C192.38 149.45 192.83 149.6 193.27 149.75C196.51 146.82 199.74 143.9 202.98 140.97C207.28 141.19 211.82 136.21 215.58 134.32C223.23 130.49 231.3 126.92 239.31 124.2C246.65 121.71 254.65 120.64 262.23 118.93C270.16 117.14 278.04 115.02 286.28 114.16C294.69 113.29 303.45 112.63 311.73 110.89C321.04 108.92 330.78 108.62 340.18 106.83C342.67 106.35 347.75 104.8 349.59 107.29C351.67 110.12 350.45 115.15 350.06 118.25C349.69 121.12 350.03 124.05 349.74 126.91C349.13 132.78 348.01 138.45 347.12 144.27C342.85 171.91 332.04 196.92 314.64 218.86C309.67 225.12 301.09 233.26 294.48 237.71C291.22 239.9 287.48 241.69 284.25 243.94C284.23 244.32 284.21 244.69 284.19 245.06C281.97 248.41 274.99 249.66 271.4 251.22C255.51 258.15 238.23 258.71 221 260.69C220.01 260.54 218.53 260.79 218.75 259.6C215.54 260.25 212.14 259.76 208.9 260.25C200.86 261.46 191 263.06 184.25 267.95C184.22 268.32 184.18 268.68 184.15 269.05C183.96 269.26 183.77 269.48 183.57 269.69C182.97 269.51 182.36 269.32 181.75 269.14C171.11 275.35 162.4 287.1 162.75 299.77C163.14 299.85 163.52 299.92 163.91 300C163.98 304.4 166.62 303.41 169.07 305.99C168.8 306.25 168.52 306.51 168.25 306.78C170.45 306.72 172.16 308.82 174.53 309.68C178.5 311.13 183.03 313.17 187.26 313.92C206.14 317.29 226.09 319.92 245 315.13C248.23 314.32 251.85 314.73 255.09 313.77C273.98 308.18 291.38 301.48 307.5 289.74C313.9 285.07 319.24 279.03 324.73 273.48C328.14 270.04 330.09 265.79 334.49 263.27C337.04 261.81 340.01 261.52 342.75 260.5C342.62 262.46 346.08 262.21 347.68 263.07C349.99 264.32 351.61 266.67 353.75 267.82C356.38 287.81 354.91 308.96 354.86 329.25C354.84 337.77 356.63 348.12 351.85 355.66C346.59 363.96 329.99 372.08 321.35 376.14C317.88 377.77 313.92 380.46 310.25 381.23C310.53 381.49 310.8 381.76 311.08 382.02C310.89 382.18 310.7 382.34 310.51 382.5C308.28 381.46 305.85 382.97 303.54 383.74C298.15 385.55 292.73 387.31 287.25 388.96C287.02 389.5 286.79 390.03 286.55 390.56C284.46 388.56 274.05 392.45 270.75 392.89C262.54 394 254.5 396.04 246.25 396.92C237.79 397.83 229.27 397.76 220.75 398.18C212.37 398.6 203.64 398.33 195.27 397.84C192.41 397.67 189.66 396.97 186.75 396.88C185.92 396.85 185.07 396.91 184.24 396.85C184.18 396.84 182.65 396.71 182.69 396.76C182.88 397.01 183.26 397.05 183.51 397.25C181.82 397.12 182.81 396.89 181.66 396.23C180.44 395.53 176.77 395.38 175.24 395.1C167.23 393.59 159.21 392.93 151.36 390.8C148.12 389.93 141.34 387.36 138.44 388.69C138.11 388.44 137.79 388.19 137.46 387.95C137.89 387.71 138.32 387.47 138.75 387.23C134.07 386.32 128.95 384.5 124.56 382.68C122.43 381.8 120.59 380.03 118.4 381.58C118.22 381.4 118.04 381.22 117.87 381.04C117.83 380.69 117.79 380.35 117.75 380C113.93 378.16 109.89 376.72 106 374.71C104.54 373.96 102.72 372.23 101.19 373.5C100.92 373.35 100.65 373.19 100.38 373.04C100.67 372.76 100.96 372.47 101.25 372.19C86.46 366.08 71.67 352.12 59.79 341.45C18.73 304.56 2.84 246.1 4.97 192.25C5.59 176.79 7.02 160.93 11.25 145.96C14.1 135.9 17.6 126.17 21.28 116.48C23.36 111 26.97 105.88 29.28 100.53C29.81 99.29 31.07 98.26 31.84 97.1C34.64 92.89 37.64 88.67 40.1 84.34C43.07 79.12 48.72 73.97 52.92 69.67C65.77 56.52 80.19 43.79 96.52 35.26C103.15 31.79 109.94 28.03 116.94 25.27C119.49 24.26 125.76 22.86 126.75 20.5C128.96 21.54 130.66 19.81 132.81 19.17C138.52 17.47 144.26 15.84 150.03 14.27C165.46 10.1 181.6 9.1 197.5 6.6C203.87 5.6 210.33 6.58 216.5 4.75C218.15 5.82 221.55 5.19 223.75 5.19C228.12 5.2 232.99 5.83 237.22 5.51C239.08 5.37 240.53 4.86 242.5 5.25C241.36 5.42 240.23 5.58 239.09 5.75C244.83 6.12 250.79 5.52 256.5 6.17C265.83 7.23 275.31 8.04 284.66 9.21C288.65 9.71 299.02 12.93 302.25 11.5C304.83 14.16 308.57 14.09 311.99 13.35ZM286.5 157.02C286.42 157.78 286.33 158.54 286.25 159.3C286.92 158.81 287.58 158.31 288.25 157.82C288.49 158.04 288.73 158.27 288.96 158.49C286.64 160.76 283.35 162.61 280.57 164.32C276.02 167.13 272.07 170.95 267.53 173.76C263.16 176.47 258.64 179.23 254.45 182.22C233.77 196.99 215.31 208.42 197.86 227.62C192.04 234.01 186.63 240.42 181.85 247.61C180.37 249.82 177.45 252.51 177.25 255.14C180.09 254.6 182.71 253.16 185.4 252.2C190.54 250.37 196.38 249.02 201.77 248.09C206.35 247.3 211.06 247.26 215.69 246.8C232.34 245.11 249.85 243.63 265.53 237.74C277.07 233.4 285.09 226.6 294.96 219.56C295.22 219.71 295.49 219.85 295.75 220C297.47 218.25 299.18 216.5 300.9 214.75C300.61 214.67 300.31 214.6 300.02 214.52C304.61 208.52 309.88 203.01 313.67 196.42C325.09 176.57 331.11 155.38 334.11 132.76C334.66 128.65 335.64 124.39 335.81 120.25C332.02 118.71 326.27 120.53 322.25 120.94C312 121.98 301.91 123.59 291.75 124.95C246.06 131.04 194.57 146.28 178.79 195.1C175.84 204.22 173.56 216.79 176.25 226.32C178.22 224.68 179.65 222.09 181.36 220.1C186.57 214.06 192.37 208.39 198.38 203.15C215.62 188.12 236.08 178 256.6 168.79C263.98 165.48 271.43 162.55 278.97 159.7C281.4 158.78 283.94 157.34 286.5 157.02Z" fill="#246c50" fill-rule="evenodd" stroke="#246c50" stroke-width="0.25" stroke-linejoin="round"/>
<path d="M300.02 214.52C298.33 216.2 296.65 217.88 294.96 219.56C285.09 226.6 277.07 233.4 265.53 237.74C249.85 243.63 232.34 245.11 215.69 246.8C211.06 247.26 206.35 247.3 201.77 248.09C196.38 249.02 190.54 250.37 185.4 252.2C182.71 253.16 180.09 254.6 177.25 255.14C177.45 252.51 180.37 249.82 181.85 247.61C186.63 240.42 192.04 234.01 197.86 227.62C215.31 208.42 233.77 196.99 254.45 182.22C258.64 179.23 263.16 176.47 267.53 173.76C272.07 170.95 276.02 167.13 280.57 164.32C283.35 162.61 286.64 160.76 288.96 158.49C291.56 156.74 294.15 154.98 296.75 153.22C293.33 154.49 289.92 155.76 286.5 157.02C283.94 157.34 281.4 158.78 278.97 159.7C271.43 162.55 263.98 165.48 256.6 168.79C236.08 178 215.62 188.12 198.38 203.15C192.37 208.39 186.57 214.06 181.36 220.1C179.65 222.09 178.22 224.68 176.25 226.32C173.56 216.79 175.84 204.22 178.79 195.1C194.57 146.28 246.06 131.04 291.75 124.95C301.91 123.59 312 121.98 322.25 120.94C326.27 120.53 332.02 118.71 335.81 120.25C335.64 124.39 334.66 128.65 334.11 132.76C331.11 155.38 325.09 176.57 313.67 196.42C309.88 203.01 304.61 208.52 300.02 214.52Z" fill="#fd7e65" fill-rule="evenodd" stroke="#fd7e65" stroke-width="0.25" stroke-linejoin="round"/>
<path d="M311.99 13.35C308.57 14.09 304.83 14.16 302.25 11.5C299.02 12.93 288.65 9.71 284.66 9.21C275.31 8.04 265.83 7.23 256.5 6.17C250.79 5.52 244.83 6.12 239.09 5.75C240.23 5.58 241.36 5.42 242.5 5.25C240.53 4.86 239.08 5.37 237.22 5.51C232.99 5.83 228.12 5.2 223.75 5.19C221.55 5.19 218.15 5.82 216.5 4.75C210.33 6.58 203.87 5.6 197.5 6.6C181.6 9.1 165.46 10.1 150.03 14.27C144.26 15.84 138.52 17.47 132.81 19.17C130.66 19.81 128.96 21.54 126.75 20.5C125.76 22.86 119.49 24.26 116.94 25.27C109.94 28.03 103.15 31.79 96.52 35.26C80.19 43.79 65.77 56.52 52.92 69.67C48.72 73.97 43.07 79.12 40.1 84.34C37.64 88.67 34.64 92.89 31.84 97.1C31.07 98.26 29.81 99.29 29.28 100.53C26.97 105.88 23.36 111 21.28 116.48C17.6 126.17 14.1 135.9 11.25 145.96C7.02 160.93 5.59 176.79 4.97 192.25C2.84 246.1 18.73 304.56 59.79 341.45C71.67 352.12 86.46 366.08 101.25 372.19C100.96 372.47 100.67 372.76 100.38 373.04C96.31 372.27 92.13 368.35 88.6 366.18C75.24 357.95 63.9 347.58 52.85 336.37C2.74 285.51 -8.11 200.02 13.14 133.84C17.08 121.56 22.51 108.42 29.91 97.67C33.11 93.04 36.3 88.28 39.28 83.51C44.19 75.64 54.53 65.66 61.37 59.13C108.25 14.38 181.04 1.15 243.97 4.75C263.06 5.84 281.89 6.48 300.3 10.88C304.1 11.79 308.33 12 311.99 13.35ZM313.01 14.06C316.8 13.92 320.24 15.92 323.76 16.91C332.01 19.22 348.56 24 352.71 32.51C355.78 38.8 354.19 51.08 354.19 58.25C354.19 65.59 356.16 80.47 352.15 86.38C350.17 89.31 346.85 93.02 343.05 93.06C343.55 91.27 347.08 90.21 348.67 88.94C350.67 87.34 352.26 84.1 352.82 81.66C353.8 77.43 352.94 72.08 352.87 67.75C352.77 60.92 352.94 54.08 352.95 47.25C352.95 43.64 352.24 39.15 353.5 35.75C351.26 34.83 351.46 32.04 349.9 30.35C348.68 29.04 346.25 27.35 344.65 26.48C334.68 21.11 322.9 16.65 311.75 14.83C312.17 14.57 312.59 14.32 313.01 14.06ZM273.57 76.9C268.42 77.26 263.35 75.66 258.26 75.09C253.18 74.52 247.85 74.87 242.75 74.62C237.1 74.34 230.87 74.58 225.24 75.11C222.36 75.37 219.89 76.14 216.92 75.91C216.29 75.69 215.65 75.47 215.02 75.25C227.1 73.49 239.4 72.29 251.72 73.23C259.44 73.81 267.11 75.54 274.75 76.13C274.36 76.39 273.96 76.64 273.57 76.9ZM215.47 76.67C213.66 76.76 211.84 76.85 210.03 76.94C209.55 76.71 209.08 76.48 208.6 76.25C210.89 76.39 213.18 76.53 215.47 76.67ZM343.05 93.06C340.65 96.85 329.39 93.91 325.78 92.88C315.25 89.86 305.31 84.93 294.7 82.13C289.53 80.77 284.29 79.69 279.13 78.2C277.58 77.75 276.02 78.1 274.5 77.48C274.92 77.15 275.33 76.83 275.75 76.5C276.68 77.77 279.06 76.81 280.75 77.05C284.88 77.63 289.1 79.15 293.14 80.21C303.49 82.93 313.44 87.44 323.35 90.83C324.21 91.13 325.26 90.88 326.16 91.16C328.39 91.88 334.17 94.43 336.23 94.1C337.29 93.93 338.12 93.09 339.25 92.95C340.62 92.78 341.79 93.43 343.05 93.06ZM209.09 77.58C204.69 79.37 199.46 79.6 194.89 81.2C182.56 85.52 170.57 91.06 159.41 98.2C119.8 123.52 99.66 168.74 104.96 214.75C105.85 222.53 106.51 230.22 109.24 237.57C113.97 250.3 119.41 262.78 128.16 273.63C131.77 278.1 136.57 281.98 139.9 286.51C139.43 286.59 138.95 286.67 138.47 286.75C114.35 263.49 100.4 230.16 102.64 196.25C103.33 185.7 103.77 174.94 107.18 164.87C114.68 142.74 123.03 130.88 138.71 113.91C152.62 98.84 170.75 89.07 189.62 81.8C194.26 80.01 204.67 75.27 209.09 77.58ZM284.19 245.06C284.21 244.69 284.23 244.32 284.25 243.94C287.48 241.69 291.22 239.9 294.48 237.71C301.09 233.26 309.67 225.12 314.64 218.86C332.04 196.92 342.85 171.91 347.12 144.27C348.01 138.45 349.13 132.78 349.74 126.91C350.03 124.05 349.69 121.12 350.06 118.25C350.45 115.15 351.67 110.12 349.59 107.29C347.75 104.8 342.67 106.35 340.18 106.83C330.78 108.62 321.04 108.92 311.73 110.89C303.45 112.63 294.69 113.29 286.28 114.16C278.04 115.02 270.16 117.14 262.23 118.93C254.65 120.64 246.65 121.71 239.31 124.2C231.3 126.92 223.23 130.49 215.58 134.32C211.82 136.21 207.28 141.19 202.98 140.97C204.03 139.05 207.22 138.02 209.05 136.78C215.26 132.58 222.22 129.49 229.1 126.79C250.04 118.57 272.7 114.43 295.26 111.92C302.07 111.17 308.79 109.38 315.75 108.97C322.88 108.55 330.11 106.75 337.26 105.96C338.86 105.78 340.07 105.01 341.75 104.97C344.57 104.91 348.83 103.74 350.65 106.58C353.29 110.69 352.09 117.13 351.33 121.75C350.81 124.9 351.23 128.09 350.94 131.25C350.62 134.75 349.7 138.33 349.09 141.76C342.96 176.2 333.2 201.41 308.38 227.14C303.17 232.54 297.39 236.81 291.37 241.13C289.31 242.61 286.71 244.78 284.19 245.06ZM202.98 140.97C199.74 143.9 196.51 146.82 193.27 149.75C192.83 149.6 192.38 149.45 191.93 149.31C194.68 146.6 199.12 141.7 202.98 140.97ZM173.95 170.36C175.18 166.12 183.61 156.17 187.32 153.44C187.88 153.38 188.44 153.31 189 153.25C188.37 155.14 185.68 156.83 184.25 158.47C180.84 162.36 177.23 166.71 174.79 171.25C174.51 170.95 174.23 170.66 173.95 170.36ZM288.96 158.49C288.73 158.27 288.49 158.04 288.25 157.82C287.58 158.31 286.92 158.81 286.25 159.3C286.33 158.54 286.42 157.78 286.5 157.02C289.92 155.76 293.33 154.49 296.75 153.22C294.15 154.98 291.56 156.74 288.96 158.49ZM300.02 214.52C300.31 214.6 300.61 214.67 300.9 214.75C299.18 216.5 297.47 218.25 295.75 220C295.49 219.85 295.22 219.71 294.96 219.56C296.65 217.88 298.33 216.2 300.02 214.52ZM221 260.69C218.48 261.2 215.82 260.89 213.25 261.07C209 261.36 204.4 262.14 200.27 263.12C197.07 263.87 193.47 264.97 190.41 266.22C188.34 267.05 186.42 268.84 184.15 269.05C184.18 268.68 184.22 268.32 184.25 267.95C191 263.06 200.86 261.46 208.9 260.25C212.14 259.76 215.54 260.25 218.75 259.6C218.53 260.79 220.01 260.54 221 260.69ZM311.08 382.02C310.8 381.76 310.53 381.49 310.25 381.23C313.92 380.46 317.88 377.77 321.35 376.14C329.99 372.08 346.59 363.96 351.85 355.66C356.63 348.12 354.84 337.77 354.86 329.25C354.91 308.96 356.38 287.81 353.75 267.82C351.61 266.67 349.99 264.32 347.68 263.07C346.08 262.21 342.62 262.46 342.75 260.5C340.01 261.52 337.04 261.81 334.49 263.27C330.09 265.79 328.14 270.04 324.73 273.48C319.24 279.03 313.9 285.07 307.5 289.74C291.38 301.48 273.98 308.18 255.09 313.77C251.85 314.73 248.23 314.32 245 315.13C226.09 319.92 206.14 317.29 187.26 313.92C183.03 313.17 178.5 311.13 174.53 309.68C172.16 308.82 170.45 306.72 168.25 306.78C168.52 306.51 168.8 306.25 169.07 305.99C172.23 306.48 175.44 308.65 178.41 309.77C184.65 312.14 192.14 313.87 198.76 314.91C225.86 319.17 256.03 314.6 280.64 303.84C295.45 297.36 308.4 288.14 319.92 276.66C328.32 268.28 333.08 256.58 347.2 261.11C350.68 262.23 354.66 266.44 355.8 269.88C357.67 275.55 356.39 296.16 356.36 303.25C356.31 314.08 356.44 324.92 356.4 335.75C356.38 340.18 357.24 346.37 355.8 350.61C351.53 363.16 333.43 371.91 322.38 377.18C318.93 378.82 314.93 381.62 311.08 382.02ZM183.57 269.69C172.1 275.13 164.68 287.79 163.91 300C163.52 299.92 163.14 299.85 162.75 299.77C162.4 287.1 171.11 275.35 181.75 269.14C182.36 269.32 182.97 269.51 183.57 269.69ZM117.87 381.04C114.1 380.78 104.15 375.95 101.19 373.5C102.72 372.23 104.54 373.96 106 374.71C109.89 376.72 113.93 378.16 117.75 380C117.79 380.35 117.83 380.69 117.87 381.04ZM137.46 387.95C132.49 388.28 123.17 383.58 118.4 381.58C120.59 380.03 122.43 381.8 124.56 382.68C128.95 384.5 134.07 386.32 138.75 387.23C138.32 387.47 137.89 387.71 137.46 387.95ZM310.51 382.5C303.04 386.42 294.37 387.59 286.55 390.56C286.79 390.03 287.02 389.5 287.25 388.96C292.73 387.31 298.15 385.55 303.54 383.74C305.85 382.97 308.28 381.46 310.51 382.5ZM286.55 390.56C281.29 393.32 263.83 395.92 257.24 396.94C255.43 397.23 253.55 396.85 251.73 397.25C235.65 400.79 216.2 400.17 199.73 399.13C178.94 397.83 157.95 395.2 138.44 388.69C141.34 387.36 148.12 389.93 151.36 390.8C159.21 392.93 167.23 393.59 175.24 395.1C176.77 395.38 180.44 395.53 181.66 396.23C182.81 396.89 181.82 397.12 183.51 397.25C183.26 397.05 182.88 397.01 182.69 396.76C182.65 396.71 184.18 396.84 184.24 396.85C185.07 396.91 185.92 396.85 186.75 396.88C189.66 396.97 192.41 397.67 195.27 397.84C203.64 398.33 212.37 398.6 220.75 398.18C229.27 397.76 237.79 397.83 246.25 396.92C254.5 396.04 262.54 394 270.75 392.89C274.05 392.45 284.46 388.56 286.55 390.56Z" fill="#154a31" fill-rule="evenodd" stroke="#154a31" stroke-width="0.25" stroke-linejoin="round"/>
</svg>